<mxfile host="app.diagrams.net" agent="Mozilla/5.0 (Macintosh; Intel Mac OS X 10_15_7) AppleWebKit/537.36 (KHTML, like Gecko) Chrome/128.0.0.0 Safari/537.36" version="24.7.12">
  <diagram id="C5RBs43oDa-KdzZeNtuy" name="Page-1">
    <mxGraphModel dx="2403" dy="528" grid="1" gridSize="10" guides="1" tooltips="1" connect="1" arrows="1" fold="1" page="1" pageScale="1" pageWidth="1169" pageHeight="827" math="0" shadow="0">
      <root>
        <mxCell id="WIyWlLk6GJQsqaUBKTNV-0" />
        <object label="background" id="zRnvxChmmkFEFyJADCu1-0">
          <mxCell parent="WIyWlLk6GJQsqaUBKTNV-0" />
        </object>
        <mxCell id="zRnvxChmmkFEFyJADCu1-2" value="" style="rounded=1;whiteSpace=wrap;html=1;fillStyle=auto;fillColor=#F4B9B7;gradientColor=#DD8482;gradientDirection=south;dashed=1;strokeColor=none;shadow=1;arcSize=4;fontFamily=Arial;fontSource=https%3A%2F%2Ffonts.googleapis.com%2Fcss%3Ffamily%3DArial;" parent="zRnvxChmmkFEFyJADCu1-0" vertex="1">
          <mxGeometry x="1047" y="1157.62" width="560" height="652.38" as="geometry" />
        </mxCell>
        <mxCell id="zRnvxChmmkFEFyJADCu1-22" value="&lt;div&gt;&lt;br&gt;&lt;/div&gt;&lt;div&gt;&lt;div&gt;&lt;br&gt;&lt;/div&gt;&lt;div&gt;&lt;br&gt;&lt;/div&gt;&lt;div&gt;&lt;br&gt;&lt;/div&gt;&lt;div&gt;&lt;br&gt;&lt;/div&gt;&lt;div&gt;&lt;br&gt;&lt;/div&gt;&lt;div&gt;&lt;br&gt;&lt;/div&gt;&lt;div&gt;&lt;br&gt;&lt;/div&gt;&lt;div&gt;&lt;br&gt;&lt;/div&gt;&lt;div&gt;&lt;br&gt;&lt;/div&gt;&lt;br&gt;&lt;/div&gt;" style="rounded=0;whiteSpace=wrap;html=1;fillStyle=solid;fillColor=#FFFFFF;shadow=1;strokeColor=#602826;fontFamily=Arial;fontSource=https%3A%2F%2Ffonts.googleapis.com%2Fcss%3Ffamily%3DArial;" parent="zRnvxChmmkFEFyJADCu1-0" vertex="1">
          <mxGeometry x="1067" y="1180" width="520" height="285" as="geometry" />
        </mxCell>
        <mxCell id="zRnvxChmmkFEFyJADCu1-97" value="" style="rounded=1;whiteSpace=wrap;html=1;fillStyle=auto;fillColor=#F4B9B7;gradientColor=#DD8482;gradientDirection=south;dashed=1;strokeColor=none;shadow=1;arcSize=6;fontFamily=Arial;fontSource=https%3A%2F%2Ffonts.googleapis.com%2Fcss%3Ffamily%3DArial;" parent="zRnvxChmmkFEFyJADCu1-0" vertex="1">
          <mxGeometry x="460" y="1160" width="560" height="320" as="geometry" />
        </mxCell>
        <mxCell id="zRnvxChmmkFEFyJADCu1-23" value="&lt;div style=&quot;forced-color-adjust: none; font-style: normal; font-variant-ligatures: normal; font-variant-caps: normal; font-weight: 400; letter-spacing: normal; orphans: 2; text-align: center; text-indent: 0px; text-transform: none; widows: 2; word-spacing: 0px; -webkit-text-stroke-width: 0px; white-space: normal; text-decoration-thickness: initial; text-decoration-style: initial; text-decoration-color: initial; font-size: 20px;&quot;&gt;&lt;font style=&quot;font-size: 20px;&quot; color=&quot;#ffffff&quot;&gt;&lt;font style=&quot;font-size: 20px;&quot;&gt;&lt;b style=&quot;forced-color-adjust: none;&quot;&gt;WP2.&amp;nbsp;&lt;/b&gt;&lt;/font&gt;&lt;b style=&quot;&quot;&gt;Fairness-aware adaptive signal algorithm&lt;/b&gt;&lt;/font&gt;&lt;/div&gt;&lt;div style=&quot;font-size: 20px;&quot;&gt;&lt;b&gt;&lt;font style=&quot;font-size: 20px;&quot; color=&quot;#ffffff&quot;&gt;under frequent arrivals of AMOD vehicles&lt;/font&gt;&lt;/b&gt;&lt;/div&gt;" style="rounded=0;whiteSpace=wrap;html=1;align=center;verticalAlign=middle;fillColor=#903C3A;strokeColor=#903C3A;fontFamily=Arial;fontSource=https%3A%2F%2Ffonts.googleapis.com%2Fcss%3Ffamily%3DArial;aspect=fixed;" parent="zRnvxChmmkFEFyJADCu1-0" vertex="1">
          <mxGeometry x="1067" y="1180" width="520" height="69.15" as="geometry" />
        </mxCell>
        <mxCell id="zRnvxChmmkFEFyJADCu1-24" value="&lt;span style=&quot;font-weight: 400; font-size: 20px;&quot;&gt;&lt;font data-font-src=&quot;https://fonts.googleapis.com/css?family=Arial&quot; style=&quot;font-size: 20px;&quot;&gt;WP2.1&amp;nbsp;&lt;/font&gt;&lt;/span&gt;&lt;div style=&quot;font-size: 20px;&quot;&gt;&lt;span style=&quot;font-weight: 400; font-size: 20px;&quot;&gt;&lt;font data-font-src=&quot;https://fonts.googleapis.com/css?family=Arial&quot; style=&quot;font-size: 20px;&quot;&gt;Fairness expression&lt;/font&gt;&lt;/span&gt;&lt;/div&gt;" style="rounded=1;whiteSpace=wrap;html=1;arcSize=18;shadow=1;fontStyle=1;gradientColor=#F4B9B7;gradientDirection=south;strokeColor=#602826;fontColor=#602826;fontFamily=Arial;fontSource=https%3A%2F%2Ffonts.googleapis.com%2Fcss%3Ffamily%3DArial;fontSize=20;" parent="zRnvxChmmkFEFyJADCu1-0" vertex="1">
          <mxGeometry x="1099" y="1265" width="200" height="80" as="geometry" />
        </mxCell>
        <mxCell id="zRnvxChmmkFEFyJADCu1-25" value="WP2.2&amp;nbsp;&amp;nbsp;&lt;div style=&quot;font-size: 20px;&quot;&gt;Adaptive signal algorithm design&lt;/div&gt;" style="text;html=1;align=center;verticalAlign=middle;whiteSpace=wrap;rounded=1;strokeColor=#602826;fillColor=default;shadow=1;fontStyle=1;gradientColor=#F4B9B7;gradientDirection=south;fontColor=#602826;fontFamily=Arial;fontSource=https%3A%2F%2Ffonts.googleapis.com%2Fcss%3Ffamily%3DArial;fontSize=20;" parent="zRnvxChmmkFEFyJADCu1-0" vertex="1">
          <mxGeometry x="1099" y="1369" width="200" height="80" as="geometry" />
        </mxCell>
        <mxCell id="zRnvxChmmkFEFyJADCu1-26" value="&lt;span style=&quot;font-weight: 400; font-size: 20px;&quot;&gt;WP2.3&amp;nbsp;&lt;/span&gt;&lt;div style=&quot;font-size: 20px;&quot;&gt;&lt;span style=&quot;font-weight: 400; font-size: 20px;&quot;&gt;Trade-off analysis on multiple objectives&lt;/span&gt;&lt;/div&gt;" style="rounded=1;whiteSpace=wrap;html=1;arcSize=13;shadow=1;fontStyle=1;gradientColor=#F4B9B7;gradientDirection=south;fillColor=#FFFFFF;strokeColor=#602826;fontColor=#602826;fontFamily=Arial;fontSource=https%3A%2F%2Ffonts.googleapis.com%2Fcss%3Ffamily%3DArial;fontSize=20;" parent="zRnvxChmmkFEFyJADCu1-0" vertex="1">
          <mxGeometry x="1352" y="1265" width="200" height="80" as="geometry" />
        </mxCell>
        <mxCell id="zRnvxChmmkFEFyJADCu1-44" value="&lt;b style=&quot;font-size: 20px;&quot;&gt;Isolated Intersections&lt;/b&gt;" style="text;html=1;align=center;verticalAlign=middle;whiteSpace=wrap;rounded=0;fontColor=#903C3A;fontFamily=Arial;fontSource=https%3A%2F%2Ffonts.googleapis.com%2Fcss%3Ffamily%3DArial;fontSize=20;" parent="zRnvxChmmkFEFyJADCu1-0" vertex="1">
          <mxGeometry x="1654.77" y="1230" width="60" height="30" as="geometry" />
        </mxCell>
        <mxCell id="zRnvxChmmkFEFyJADCu1-45" value="&lt;b style=&quot;font-size: 20px;&quot;&gt;Corridors&lt;/b&gt;" style="text;html=1;align=center;verticalAlign=middle;whiteSpace=wrap;rounded=0;fontColor=#903C3A;fontFamily=Arial;fontSource=https%3A%2F%2Ffonts.googleapis.com%2Fcss%3Ffamily%3DArial;fontSize=20;" parent="zRnvxChmmkFEFyJADCu1-0" vertex="1">
          <mxGeometry x="1644.77" y="1700" width="80" height="30" as="geometry" />
        </mxCell>
        <mxCell id="zRnvxChmmkFEFyJADCu1-57" value="&lt;b style=&quot;font-size: 20px;&quot;&gt;&lt;font color=&quot;#ffffff&quot; style=&quot;font-size: 20px;&quot;&gt;Signal Coordination&lt;/font&gt;&lt;/b&gt;" style="html=1;shadow=1;dashed=0;align=center;verticalAlign=middle;shape=mxgraph.arrows2.stripedArrow;dy=0.57;dx=33.74;notch=25;rotation=90;strokeColor=#903C3A;fontFamily=Arial;fontSource=https%3A%2F%2Ffonts.googleapis.com%2Fcss%3Ffamily%3DArial;fontSize=20;fillColor=#903C3A;" parent="zRnvxChmmkFEFyJADCu1-0" vertex="1">
          <mxGeometry x="1499.995" y="1461.28" width="369.55" height="60" as="geometry" />
        </mxCell>
        <mxCell id="zRnvxChmmkFEFyJADCu1-76" value="" style="edgeStyle=orthogonalEdgeStyle;rounded=0;html=1;jettySize=auto;orthogonalLoop=1;fontSize=20;endArrow=classic;endFill=1;endSize=10;strokeWidth=1;shadow=0;labelBackgroundColor=none;entryX=0.5;entryY=0;entryDx=0;entryDy=0;strokeColor=#602826;fontFamily=Arial;fontSource=https%3A%2F%2Ffonts.googleapis.com%2Fcss%3Ffamily%3DArial;exitX=0.5;exitY=1;exitDx=0;exitDy=0;" parent="zRnvxChmmkFEFyJADCu1-0" source="zRnvxChmmkFEFyJADCu1-24" target="zRnvxChmmkFEFyJADCu1-25" edge="1">
          <mxGeometry y="10" relative="1" as="geometry">
            <mxPoint as="offset" />
            <mxPoint x="1388" y="1390" as="sourcePoint" />
            <mxPoint x="1388.0400000000002" y="1366" as="targetPoint" />
            <Array as="points" />
          </mxGeometry>
        </mxCell>
        <mxCell id="SRxlYoo3FdKlpQXrsNi6-1" value="" style="group" parent="zRnvxChmmkFEFyJADCu1-0" vertex="1" connectable="0">
          <mxGeometry x="660" y="1840" width="160" height="128" as="geometry" />
        </mxCell>
        <mxCell id="zRnvxChmmkFEFyJADCu1-40" value="" style="shape=offPageConnector;whiteSpace=wrap;html=1;rounded=0;fillColor=#DD8482;strokeColor=none;shadow=1;fontFamily=Arial;fontSource=https%3A%2F%2Ffonts.googleapis.com%2Fcss%3Ffamily%3DArial;aspect=fixed;" parent="SRxlYoo3FdKlpQXrsNi6-1" vertex="1">
          <mxGeometry width="160" height="128" as="geometry" />
        </mxCell>
        <mxCell id="zRnvxChmmkFEFyJADCu1-41" value="To B03:&lt;div style=&quot;font-size: 20px;&quot;&gt;&lt;span style=&quot;font-weight: normal; font-size: 20px;&quot;&gt;AMOD service reliability&lt;/span&gt;&lt;/div&gt;" style="text;html=1;align=center;verticalAlign=middle;whiteSpace=wrap;rounded=0;fontStyle=1;fontColor=#FFFFFF;fontFamily=Arial;fontSource=https%3A%2F%2Ffonts.googleapis.com%2Fcss%3Ffamily%3DArial;fontSize=20;" parent="SRxlYoo3FdKlpQXrsNi6-1" vertex="1">
          <mxGeometry x="5" y="31.5" width="150" height="35.44" as="geometry" />
        </mxCell>
        <mxCell id="SRxlYoo3FdKlpQXrsNi6-2" value="" style="group" parent="zRnvxChmmkFEFyJADCu1-0" vertex="1" connectable="0">
          <mxGeometry x="1247" y="1840" width="160" height="128" as="geometry" />
        </mxCell>
        <mxCell id="zRnvxChmmkFEFyJADCu1-42" value="" style="shape=offPageConnector;whiteSpace=wrap;html=1;rounded=0;fillColor=#DD8482;strokeColor=none;shadow=1;fontFamily=Arial;fontSource=https%3A%2F%2Ffonts.googleapis.com%2Fcss%3Ffamily%3DArial;aspect=fixed;" parent="SRxlYoo3FdKlpQXrsNi6-2" vertex="1">
          <mxGeometry width="160" height="128" as="geometry" />
        </mxCell>
        <mxCell id="zRnvxChmmkFEFyJADCu1-43" value="To C02 &amp;amp; C03:&lt;div style=&quot;font-size: 20px;&quot;&gt;&lt;span style=&quot;font-weight: normal; font-size: 20px;&quot;&gt;Signal optimization models&lt;/span&gt;&lt;/div&gt;" style="text;html=1;align=center;verticalAlign=middle;whiteSpace=wrap;rounded=0;fontStyle=1;fontColor=#FFFFFF;fontFamily=Arial;fontSource=https%3A%2F%2Ffonts.googleapis.com%2Fcss%3Ffamily%3DArial;fontSize=20;" parent="SRxlYoo3FdKlpQXrsNi6-2" vertex="1">
          <mxGeometry x="5" y="36.5" width="150" height="35" as="geometry" />
        </mxCell>
        <mxCell id="SRxlYoo3FdKlpQXrsNi6-3" value="" style="group" parent="zRnvxChmmkFEFyJADCu1-0" vertex="1" connectable="0">
          <mxGeometry x="660" y="990" width="160" height="128" as="geometry" />
        </mxCell>
        <mxCell id="zRnvxChmmkFEFyJADCu1-3" value="" style="shape=offPageConnector;whiteSpace=wrap;html=1;rounded=0;fillColor=#DD8482;strokeColor=none;shadow=1;fontFamily=Arial;fontSource=https%3A%2F%2Ffonts.googleapis.com%2Fcss%3Ffamily%3DArial;aspect=fixed;" parent="SRxlYoo3FdKlpQXrsNi6-3" vertex="1">
          <mxGeometry width="160" height="128" as="geometry" />
        </mxCell>
        <mxCell id="zRnvxChmmkFEFyJADCu1-4" value="From B03:&lt;div style=&quot;font-size: 20px;&quot;&gt;&lt;span style=&quot;font-weight: normal; font-size: 20px;&quot;&gt;AMOD Demand and&amp;nbsp; Operation&lt;/span&gt;&lt;/div&gt;" style="text;html=1;align=center;verticalAlign=middle;whiteSpace=wrap;rounded=0;fontStyle=1;fontColor=#FFFFFF;fontFamily=Arial;fontSource=https%3A%2F%2Ffonts.googleapis.com%2Fcss%3Ffamily%3DArial;fontSize=20;" parent="SRxlYoo3FdKlpQXrsNi6-3" vertex="1">
          <mxGeometry x="5" y="29" width="150" height="33.5" as="geometry" />
        </mxCell>
        <mxCell id="SRxlYoo3FdKlpQXrsNi6-4" value="" style="group" parent="zRnvxChmmkFEFyJADCu1-0" vertex="1" connectable="0">
          <mxGeometry x="1247" y="990" width="160" height="128" as="geometry" />
        </mxCell>
        <mxCell id="zRnvxChmmkFEFyJADCu1-5" value="" style="shape=offPageConnector;whiteSpace=wrap;html=1;rounded=0;fillColor=#DD8482;strokeColor=none;shadow=1;fontFamily=Arial;fontSource=https%3A%2F%2Ffonts.googleapis.com%2Fcss%3Ffamily%3DArial;aspect=fixed;" parent="SRxlYoo3FdKlpQXrsNi6-4" vertex="1">
          <mxGeometry width="160" height="128" as="geometry" />
        </mxCell>
        <mxCell id="zRnvxChmmkFEFyJADCu1-6" value="&lt;font data-font-src=&quot;https://fonts.googleapis.com/css?family=Arial&quot; style=&quot;font-size: 20px;&quot;&gt;From C01:&lt;/font&gt;&lt;div style=&quot;font-size: 20px;&quot;&gt;&lt;span style=&quot;font-weight: normal; font-size: 20px;&quot;&gt;&lt;font data-font-src=&quot;https://fonts.googleapis.com/css?family=Arial&quot; style=&quot;font-size: 20px;&quot;&gt;Fairness&lt;/font&gt;&lt;/span&gt;&lt;/div&gt;&lt;div style=&quot;font-size: 20px;&quot;&gt;&lt;span style=&quot;font-weight: normal; font-size: 20px;&quot;&gt;&lt;font style=&quot;font-size: 20px;&quot;&gt;Matrix&lt;/font&gt;&lt;/span&gt;&lt;/div&gt;" style="text;html=1;align=center;verticalAlign=middle;whiteSpace=wrap;rounded=0;fontStyle=1;fontColor=#FFFFFF;fontFamily=Arial;fontSource=https%3A%2F%2Ffonts.googleapis.com%2Fcss%3Ffamily%3DArial;fontSize=20;" parent="SRxlYoo3FdKlpQXrsNi6-4" vertex="1">
          <mxGeometry x="5" y="32.5" width="150" height="35" as="geometry" />
        </mxCell>
        <mxCell id="SRxlYoo3FdKlpQXrsNi6-8" value="" style="edgeStyle=orthogonalEdgeStyle;rounded=0;orthogonalLoop=1;jettySize=auto;html=1;strokeColor=#602826;endSize=10;entryX=0;entryY=0.5;entryDx=0;entryDy=0;" parent="zRnvxChmmkFEFyJADCu1-0" source="zRnvxChmmkFEFyJADCu1-24" target="zRnvxChmmkFEFyJADCu1-26" edge="1">
          <mxGeometry relative="1" as="geometry">
            <mxPoint x="1363" y="1304" as="targetPoint" />
          </mxGeometry>
        </mxCell>
        <mxCell id="sRhsCP6IzzSx_rNH7XnL-1" value="" style="edgeStyle=orthogonalEdgeStyle;rounded=0;html=1;jettySize=auto;orthogonalLoop=1;fontSize=20;endArrow=classic;endFill=1;endSize=10;strokeWidth=1;shadow=0;labelBackgroundColor=none;entryX=0;entryY=0.5;entryDx=0;entryDy=0;strokeColor=#602826;fontFamily=Arial;fontSource=https%3A%2F%2Ffonts.googleapis.com%2Fcss%3Ffamily%3DArial;exitX=0.988;exitY=0.428;exitDx=0;exitDy=0;exitPerimeter=0;" parent="zRnvxChmmkFEFyJADCu1-0" source="zRnvxChmmkFEFyJADCu1-25" target="zRnvxChmmkFEFyJADCu1-26" edge="1">
          <mxGeometry y="10" relative="1" as="geometry">
            <mxPoint as="offset" />
            <mxPoint x="1217" y="1348" as="sourcePoint" />
            <mxPoint x="1363" y="1299" as="targetPoint" />
            <Array as="points" />
          </mxGeometry>
        </mxCell>
        <mxCell id="sRhsCP6IzzSx_rNH7XnL-3" value="" style="edgeStyle=orthogonalEdgeStyle;rounded=0;html=1;jettySize=auto;orthogonalLoop=1;fontSize=20;endArrow=classic;endFill=1;endSize=10;strokeWidth=1;shadow=0;labelBackgroundColor=none;entryX=0.5;entryY=0;entryDx=0;entryDy=0;strokeColor=#903C3A;fontFamily=Arial;fontSource=https%3A%2F%2Ffonts.googleapis.com%2Fcss%3Ffamily%3DArial;exitX=0.5;exitY=1;exitDx=0;exitDy=0;" parent="zRnvxChmmkFEFyJADCu1-0" edge="1">
          <mxGeometry y="10" relative="1" as="geometry">
            <mxPoint as="offset" />
            <mxPoint x="1462" y="1673" as="sourcePoint" />
            <mxPoint x="1462" y="1710" as="targetPoint" />
            <Array as="points" />
          </mxGeometry>
        </mxCell>
        <mxCell id="sRhsCP6IzzSx_rNH7XnL-4" value="&lt;div&gt;&lt;br&gt;&lt;/div&gt;&lt;div&gt;&lt;div&gt;&lt;br&gt;&lt;/div&gt;&lt;div&gt;&lt;br&gt;&lt;/div&gt;&lt;div&gt;&lt;br&gt;&lt;/div&gt;&lt;div&gt;&lt;br&gt;&lt;/div&gt;&lt;div&gt;&lt;br&gt;&lt;/div&gt;&lt;div&gt;&lt;br&gt;&lt;/div&gt;&lt;div&gt;&lt;br&gt;&lt;/div&gt;&lt;div&gt;&lt;br&gt;&lt;/div&gt;&lt;div&gt;&lt;br&gt;&lt;/div&gt;&lt;br&gt;&lt;/div&gt;" style="rounded=0;whiteSpace=wrap;html=1;fillStyle=solid;fillColor=#FFFFFF;shadow=1;strokeColor=#602826;fontFamily=Arial;fontSource=https%3A%2F%2Ffonts.googleapis.com%2Fcss%3Ffamily%3DArial;" parent="zRnvxChmmkFEFyJADCu1-0" vertex="1">
          <mxGeometry x="1067" y="1505" width="520" height="285" as="geometry" />
        </mxCell>
        <mxCell id="sRhsCP6IzzSx_rNH7XnL-5" value="&lt;div style=&quot;forced-color-adjust: none; font-style: normal; font-variant-ligatures: normal; font-variant-caps: normal; font-weight: 400; letter-spacing: normal; orphans: 2; text-align: center; text-indent: 0px; text-transform: none; widows: 2; word-spacing: 0px; -webkit-text-stroke-width: 0px; white-space: normal; text-decoration-thickness: initial; text-decoration-style: initial; text-decoration-color: initial; font-size: 20px;&quot;&gt;&lt;div style=&quot;font-weight: 700;&quot;&gt;&lt;font style=&quot;font-size: 20px;&quot; color=&quot;#ffffff&quot;&gt;WP3.&amp;nbsp;&lt;span style=&quot;text-align: start; white-space: pre;&quot;&gt;Coordination of signal plan and AMOD vehicle &lt;/span&gt;&lt;/font&gt;&lt;/div&gt;&lt;div style=&quot;font-weight: 700;&quot;&gt;&lt;font style=&quot;font-size: 20px;&quot; color=&quot;#ffffff&quot;&gt;&lt;span style=&quot;text-align: start; white-space: pre;&quot;&gt;approaching speed for bicycle-vehicle &lt;/span&gt;&lt;/font&gt;&lt;span style=&quot;color: rgb(255, 255, 255); text-align: start; white-space: pre;&quot;&gt;green wave&lt;/span&gt;&lt;span style=&quot;color: rgb(255, 255, 255); text-align: start; white-space: pre;&quot;&gt;s&lt;/span&gt;&lt;/div&gt;&lt;/div&gt;" style="rounded=0;whiteSpace=wrap;html=1;align=center;verticalAlign=middle;fillColor=#903C3A;strokeColor=#903C3A;fontFamily=Arial;fontSource=https%3A%2F%2Ffonts.googleapis.com%2Fcss%3Ffamily%3DArial;aspect=fixed;" parent="zRnvxChmmkFEFyJADCu1-0" vertex="1">
          <mxGeometry x="1067" y="1505" width="520" height="69.15" as="geometry" />
        </mxCell>
        <mxCell id="sRhsCP6IzzSx_rNH7XnL-6" value="&lt;b style=&quot;&quot;&gt;WP3.1&amp;nbsp;&lt;span style=&quot;background-color: initial;&quot;&gt;Corridor signal optimization model design&lt;/span&gt;&lt;/b&gt;" style="rounded=1;whiteSpace=wrap;html=1;arcSize=18;shadow=1;fontStyle=1;gradientColor=#F4B9B7;gradientDirection=south;strokeColor=#602826;fontColor=#602826;fontFamily=Arial;fontSource=https%3A%2F%2Ffonts.googleapis.com%2Fcss%3Ffamily%3DArial;fontSize=20;" parent="zRnvxChmmkFEFyJADCu1-0" vertex="1">
          <mxGeometry x="1352" y="1590" width="200" height="80" as="geometry" />
        </mxCell>
        <mxCell id="sRhsCP6IzzSx_rNH7XnL-7" value="&lt;b style=&quot;&quot;&gt;&lt;font style=&quot;font-size: 20px;&quot;&gt;WP3.2 AMOD vehicle approaching speed control&amp;nbsp;&amp;nbsp;&lt;/font&gt;&lt;/b&gt;" style="text;html=1;align=center;verticalAlign=middle;whiteSpace=wrap;rounded=1;strokeColor=#602826;fillColor=default;shadow=1;fontStyle=1;gradientColor=#F4B9B7;gradientDirection=south;fontColor=#602826;fontFamily=Arial;fontSource=https%3A%2F%2Ffonts.googleapis.com%2Fcss%3Ffamily%3DArial;fontSize=20;" parent="zRnvxChmmkFEFyJADCu1-0" vertex="1">
          <mxGeometry x="1352" y="1698" width="200" height="80" as="geometry" />
        </mxCell>
        <mxCell id="sRhsCP6IzzSx_rNH7XnL-8" value="&lt;span style=&quot;font-weight: 400;&quot;&gt;&lt;font style=&quot;font-size: 20px;&quot;&gt;WP3.3&amp;nbsp;&lt;/font&gt;&lt;/span&gt;&lt;div style=&quot;&quot;&gt;&lt;span style=&quot;font-weight: 400;&quot;&gt;Joint adjustment framework&lt;/span&gt;&lt;/div&gt;" style="rounded=1;whiteSpace=wrap;html=1;arcSize=13;shadow=1;fontStyle=1;gradientColor=#F4B9B7;gradientDirection=south;fillColor=#FFFFFF;strokeColor=#602826;fontColor=#602826;fontFamily=Arial;fontSource=https%3A%2F%2Ffonts.googleapis.com%2Fcss%3Ffamily%3DArial;fontSize=20;" parent="zRnvxChmmkFEFyJADCu1-0" vertex="1">
          <mxGeometry x="1100.5" y="1698" width="197" height="80" as="geometry" />
        </mxCell>
        <mxCell id="sRhsCP6IzzSx_rNH7XnL-10" value="" style="edgeStyle=orthogonalEdgeStyle;rounded=0;orthogonalLoop=1;jettySize=auto;html=1;strokeColor=#602826;endSize=10;entryX=1;entryY=0.5;entryDx=0;entryDy=0;" parent="zRnvxChmmkFEFyJADCu1-0" source="sRhsCP6IzzSx_rNH7XnL-6" target="sRhsCP6IzzSx_rNH7XnL-8" edge="1">
          <mxGeometry relative="1" as="geometry">
            <mxPoint x="1363" y="1889" as="targetPoint" />
          </mxGeometry>
        </mxCell>
        <mxCell id="sRhsCP6IzzSx_rNH7XnL-11" value="" style="edgeStyle=orthogonalEdgeStyle;rounded=0;html=1;jettySize=auto;orthogonalLoop=1;fontSize=20;endArrow=classic;endFill=1;endSize=10;strokeWidth=1;shadow=0;labelBackgroundColor=none;entryX=1;entryY=0.5;entryDx=0;entryDy=0;strokeColor=#602826;fontFamily=Arial;fontSource=https%3A%2F%2Ffonts.googleapis.com%2Fcss%3Ffamily%3DArial;exitX=0;exitY=0.5;exitDx=0;exitDy=0;" parent="zRnvxChmmkFEFyJADCu1-0" source="sRhsCP6IzzSx_rNH7XnL-7" target="sRhsCP6IzzSx_rNH7XnL-8" edge="1">
          <mxGeometry y="10" relative="1" as="geometry">
            <mxPoint as="offset" />
            <mxPoint x="1217" y="1933" as="sourcePoint" />
            <mxPoint x="1363" y="1884" as="targetPoint" />
            <Array as="points" />
          </mxGeometry>
        </mxCell>
        <mxCell id="wY2xXW73RIS2hQM-EA6c-21" value="" style="edgeStyle=orthogonalEdgeStyle;rounded=0;html=1;jettySize=auto;orthogonalLoop=1;fontSize=20;endArrow=classic;endFill=1;endSize=10;strokeWidth=1;shadow=0;labelBackgroundColor=none;entryX=0;entryY=0.5;entryDx=0;entryDy=0;strokeColor=#903C3A;fontFamily=Arial;fontSource=https%3A%2F%2Ffonts.googleapis.com%2Fcss%3Ffamily%3DArial;exitX=1;exitY=0.5;exitDx=0;exitDy=0;" edge="1" parent="zRnvxChmmkFEFyJADCu1-0" source="wY2xXW73RIS2hQM-EA6c-25">
          <mxGeometry y="10" relative="1" as="geometry">
            <mxPoint as="offset" />
            <mxPoint x="622" y="1353" as="sourcePoint" />
            <mxPoint x="768" y="1304" as="targetPoint" />
            <Array as="points" />
          </mxGeometry>
        </mxCell>
        <mxCell id="wY2xXW73RIS2hQM-EA6c-22" value="" style="edgeStyle=orthogonalEdgeStyle;rounded=0;html=1;jettySize=auto;orthogonalLoop=1;fontSize=20;endArrow=classic;endFill=1;endSize=10;strokeWidth=1;shadow=0;labelBackgroundColor=none;entryX=0.5;entryY=0;entryDx=0;entryDy=0;strokeColor=#903C3A;fontFamily=Arial;fontSource=https%3A%2F%2Ffonts.googleapis.com%2Fcss%3Ffamily%3DArial;exitX=0.5;exitY=1;exitDx=0;exitDy=0;" edge="1" parent="zRnvxChmmkFEFyJADCu1-0">
          <mxGeometry y="10" relative="1" as="geometry">
            <mxPoint as="offset" />
            <mxPoint x="614" y="1348" as="sourcePoint" />
            <mxPoint x="614" y="1385" as="targetPoint" />
            <Array as="points" />
          </mxGeometry>
        </mxCell>
        <mxCell id="wY2xXW73RIS2hQM-EA6c-23" value="&lt;div&gt;&lt;br&gt;&lt;/div&gt;&lt;div&gt;&lt;div&gt;&lt;br&gt;&lt;/div&gt;&lt;div&gt;&lt;br&gt;&lt;/div&gt;&lt;div&gt;&lt;br&gt;&lt;/div&gt;&lt;div&gt;&lt;br&gt;&lt;/div&gt;&lt;div&gt;&lt;br&gt;&lt;/div&gt;&lt;div&gt;&lt;br&gt;&lt;/div&gt;&lt;div&gt;&lt;br&gt;&lt;/div&gt;&lt;div&gt;&lt;br&gt;&lt;/div&gt;&lt;div&gt;&lt;br&gt;&lt;/div&gt;&lt;br&gt;&lt;/div&gt;" style="rounded=0;whiteSpace=wrap;html=1;fillStyle=solid;fillColor=#FFFFFF;shadow=1;strokeColor=#602826;fontFamily=Arial;fontSource=https%3A%2F%2Ffonts.googleapis.com%2Fcss%3Ffamily%3DArial;" vertex="1" parent="zRnvxChmmkFEFyJADCu1-0">
          <mxGeometry x="480" y="1180" width="520" height="285" as="geometry" />
        </mxCell>
        <mxCell id="wY2xXW73RIS2hQM-EA6c-24" value="&lt;div style=&quot;forced-color-adjust: none; font-style: normal; font-variant-ligatures: normal; font-variant-caps: normal; font-weight: 400; letter-spacing: normal; orphans: 2; text-align: center; text-indent: 0px; text-transform: none; widows: 2; word-spacing: 0px; -webkit-text-stroke-width: 0px; white-space: normal; text-decoration-thickness: initial; text-decoration-style: initial; text-decoration-color: initial; font-size: 20px;&quot;&gt;&lt;font style=&quot;font-size: 20px;&quot; color=&quot;#ffffff&quot;&gt;&lt;font style=&quot;font-size: 20px;&quot;&gt;&lt;b style=&quot;forced-color-adjust: none;&quot;&gt;WP1.&amp;nbsp;&lt;/b&gt;&lt;/font&gt;&lt;/font&gt;&lt;b style=&quot;background-color: initial; color: rgb(255, 255, 255);&quot;&gt;&lt;font style=&quot;font-size: 20px;&quot;&gt;Queue Estimation and Arrival Prediction&amp;nbsp;&lt;/font&gt;&lt;/b&gt;&lt;/div&gt;&lt;div style=&quot;font-size: 20px;&quot;&gt;&lt;b&gt;&lt;font style=&quot;font-size: 20px;&quot; color=&quot;#ffffff&quot;&gt;of AMOD vehicles&lt;/font&gt;&lt;/b&gt;&lt;/div&gt;" style="rounded=0;whiteSpace=wrap;html=1;align=center;verticalAlign=middle;fillColor=#903C3A;strokeColor=#903C3A;fontFamily=Arial;fontSource=https%3A%2F%2Ffonts.googleapis.com%2Fcss%3Ffamily%3DArial;aspect=fixed;" vertex="1" parent="zRnvxChmmkFEFyJADCu1-0">
          <mxGeometry x="480" y="1180" width="520" height="69.15" as="geometry" />
        </mxCell>
        <mxCell id="wY2xXW73RIS2hQM-EA6c-25" value="&lt;span style=&quot;font-weight: 400;&quot;&gt;&lt;font data-font-src=&quot;https://fonts.googleapis.com/css?family=Arial&quot; style=&quot;font-size: 20px;&quot;&gt;WP1.1&amp;nbsp;&lt;/font&gt;&lt;/span&gt;&lt;div style=&quot;&quot;&gt;&lt;span style=&quot;font-weight: 400;&quot;&gt;&lt;font style=&quot;font-size: 20px;&quot;&gt;Queue estimation at intersections&lt;/font&gt;&lt;/span&gt;&lt;br&gt;&lt;/div&gt;" style="rounded=1;whiteSpace=wrap;html=1;arcSize=18;shadow=1;fontStyle=1;gradientColor=#F4B9B7;gradientDirection=south;strokeColor=#602826;fontColor=#602826;fontFamily=Arial;fontSource=https%3A%2F%2Ffonts.googleapis.com%2Fcss%3Ffamily%3DArial;fontSize=20;" vertex="1" parent="zRnvxChmmkFEFyJADCu1-0">
          <mxGeometry x="504" y="1265" width="200" height="80" as="geometry" />
        </mxCell>
        <mxCell id="wY2xXW73RIS2hQM-EA6c-26" value="&lt;span style=&quot;font-weight: 400;&quot;&gt;&lt;font style=&quot;font-size: 20px;&quot;&gt;WP1.2&amp;nbsp;&amp;nbsp;&lt;/font&gt;&lt;/span&gt;&lt;div style=&quot;&quot;&gt;&lt;span style=&quot;font-weight: 400;&quot;&gt;&lt;font style=&quot;font-size: 20px;&quot;&gt;AMOD operation and dynamics&lt;/font&gt;&lt;/span&gt;&lt;/div&gt;" style="text;html=1;align=center;verticalAlign=middle;whiteSpace=wrap;rounded=1;strokeColor=#602826;fillColor=default;shadow=1;fontStyle=1;gradientColor=#F4B9B7;gradientDirection=south;fontColor=#602826;fontFamily=Arial;fontSource=https%3A%2F%2Ffonts.googleapis.com%2Fcss%3Ffamily%3DArial;fontSize=20;" vertex="1" parent="zRnvxChmmkFEFyJADCu1-0">
          <mxGeometry x="504" y="1369" width="200" height="80" as="geometry" />
        </mxCell>
        <mxCell id="wY2xXW73RIS2hQM-EA6c-27" value="&lt;b style=&quot;&quot;&gt;&lt;font style=&quot;font-size: 20px;&quot;&gt;WP1.3&amp;nbsp;&lt;/font&gt;&lt;/b&gt;&lt;div style=&quot;font-weight: 400;&quot;&gt;&lt;b style=&quot;&quot;&gt;&lt;font style=&quot;font-size: 20px;&quot;&gt;Arrival prediction of AMOD vehicles&lt;/font&gt;&lt;/b&gt;&lt;/div&gt;" style="rounded=1;whiteSpace=wrap;html=1;arcSize=13;shadow=1;fontStyle=1;gradientColor=#F4B9B7;gradientDirection=south;fillColor=#FFFFFF;strokeColor=#602826;fontColor=#602826;fontFamily=Arial;fontSource=https%3A%2F%2Ffonts.googleapis.com%2Fcss%3Ffamily%3DArial;fontSize=20;" vertex="1" parent="zRnvxChmmkFEFyJADCu1-0">
          <mxGeometry x="757" y="1265" width="200" height="80" as="geometry" />
        </mxCell>
        <mxCell id="wY2xXW73RIS2hQM-EA6c-28" value="" style="edgeStyle=orthogonalEdgeStyle;rounded=0;html=1;jettySize=auto;orthogonalLoop=1;fontSize=20;endArrow=classic;endFill=1;endSize=10;strokeWidth=1;shadow=0;labelBackgroundColor=none;entryX=0.5;entryY=0;entryDx=0;entryDy=0;strokeColor=#602826;fontFamily=Arial;fontSource=https%3A%2F%2Ffonts.googleapis.com%2Fcss%3Ffamily%3DArial;exitX=0.5;exitY=1;exitDx=0;exitDy=0;" edge="1" parent="zRnvxChmmkFEFyJADCu1-0" source="wY2xXW73RIS2hQM-EA6c-25" target="wY2xXW73RIS2hQM-EA6c-26">
          <mxGeometry y="10" relative="1" as="geometry">
            <mxPoint as="offset" />
            <mxPoint x="793" y="1390" as="sourcePoint" />
            <mxPoint x="793.0400000000002" y="1366" as="targetPoint" />
            <Array as="points" />
          </mxGeometry>
        </mxCell>
        <mxCell id="wY2xXW73RIS2hQM-EA6c-29" value="" style="edgeStyle=orthogonalEdgeStyle;rounded=0;orthogonalLoop=1;jettySize=auto;html=1;strokeColor=#602826;endSize=10;entryX=0;entryY=0.5;entryDx=0;entryDy=0;" edge="1" parent="zRnvxChmmkFEFyJADCu1-0" source="wY2xXW73RIS2hQM-EA6c-25" target="wY2xXW73RIS2hQM-EA6c-27">
          <mxGeometry relative="1" as="geometry">
            <mxPoint x="768" y="1304" as="targetPoint" />
          </mxGeometry>
        </mxCell>
        <mxCell id="wY2xXW73RIS2hQM-EA6c-30" value="" style="edgeStyle=orthogonalEdgeStyle;rounded=0;html=1;jettySize=auto;orthogonalLoop=1;fontSize=20;endArrow=classic;endFill=1;endSize=10;strokeWidth=1;shadow=0;labelBackgroundColor=none;entryX=0;entryY=0.5;entryDx=0;entryDy=0;strokeColor=#602826;fontFamily=Arial;fontSource=https%3A%2F%2Ffonts.googleapis.com%2Fcss%3Ffamily%3DArial;exitX=0.988;exitY=0.428;exitDx=0;exitDy=0;exitPerimeter=0;" edge="1" parent="zRnvxChmmkFEFyJADCu1-0" source="wY2xXW73RIS2hQM-EA6c-26" target="wY2xXW73RIS2hQM-EA6c-27">
          <mxGeometry y="10" relative="1" as="geometry">
            <mxPoint as="offset" />
            <mxPoint x="622" y="1348" as="sourcePoint" />
            <mxPoint x="768" y="1299" as="targetPoint" />
            <Array as="points" />
          </mxGeometry>
        </mxCell>
        <mxCell id="wY2xXW73RIS2hQM-EA6c-31" value="" style="rounded=1;whiteSpace=wrap;html=1;fillStyle=auto;fillColor=#F4B9B7;gradientColor=#DD8482;gradientDirection=south;dashed=1;strokeColor=none;shadow=1;arcSize=6;fontFamily=Arial;fontSource=https%3A%2F%2Ffonts.googleapis.com%2Fcss%3Ffamily%3DArial;" vertex="1" parent="zRnvxChmmkFEFyJADCu1-0">
          <mxGeometry x="460" y="1490" width="560" height="320" as="geometry" />
        </mxCell>
        <mxCell id="wY2xXW73RIS2hQM-EA6c-32" value="" style="edgeStyle=orthogonalEdgeStyle;rounded=0;html=1;jettySize=auto;orthogonalLoop=1;fontSize=20;endArrow=classic;endFill=1;endSize=10;strokeWidth=1;shadow=0;labelBackgroundColor=none;entryX=0;entryY=0.5;entryDx=0;entryDy=0;strokeColor=#903C3A;fontFamily=Arial;fontSource=https%3A%2F%2Ffonts.googleapis.com%2Fcss%3Ffamily%3DArial;exitX=1;exitY=0.5;exitDx=0;exitDy=0;" edge="1" parent="zRnvxChmmkFEFyJADCu1-0" source="wY2xXW73RIS2hQM-EA6c-36">
          <mxGeometry y="10" relative="1" as="geometry">
            <mxPoint as="offset" />
            <mxPoint x="622" y="1678" as="sourcePoint" />
            <mxPoint x="768" y="1629" as="targetPoint" />
            <Array as="points" />
          </mxGeometry>
        </mxCell>
        <mxCell id="wY2xXW73RIS2hQM-EA6c-33" value="" style="edgeStyle=orthogonalEdgeStyle;rounded=0;html=1;jettySize=auto;orthogonalLoop=1;fontSize=20;endArrow=classic;endFill=1;endSize=10;strokeWidth=1;shadow=0;labelBackgroundColor=none;entryX=0.5;entryY=0;entryDx=0;entryDy=0;strokeColor=#903C3A;fontFamily=Arial;fontSource=https%3A%2F%2Ffonts.googleapis.com%2Fcss%3Ffamily%3DArial;exitX=0.5;exitY=1;exitDx=0;exitDy=0;" edge="1" parent="zRnvxChmmkFEFyJADCu1-0">
          <mxGeometry y="10" relative="1" as="geometry">
            <mxPoint as="offset" />
            <mxPoint x="614" y="1673" as="sourcePoint" />
            <mxPoint x="614" y="1710" as="targetPoint" />
            <Array as="points" />
          </mxGeometry>
        </mxCell>
        <mxCell id="wY2xXW73RIS2hQM-EA6c-34" value="&lt;div&gt;&lt;br&gt;&lt;/div&gt;&lt;div&gt;&lt;div&gt;&lt;br&gt;&lt;/div&gt;&lt;div&gt;&lt;br&gt;&lt;/div&gt;&lt;div&gt;&lt;br&gt;&lt;/div&gt;&lt;div&gt;&lt;br&gt;&lt;/div&gt;&lt;div&gt;&lt;br&gt;&lt;/div&gt;&lt;div&gt;&lt;br&gt;&lt;/div&gt;&lt;div&gt;&lt;br&gt;&lt;/div&gt;&lt;div&gt;&lt;br&gt;&lt;/div&gt;&lt;div&gt;&lt;br&gt;&lt;/div&gt;&lt;br&gt;&lt;/div&gt;" style="rounded=0;whiteSpace=wrap;html=1;fillStyle=solid;fillColor=#FFFFFF;shadow=1;strokeColor=#602826;fontFamily=Arial;fontSource=https%3A%2F%2Ffonts.googleapis.com%2Fcss%3Ffamily%3DArial;" vertex="1" parent="zRnvxChmmkFEFyJADCu1-0">
          <mxGeometry x="480" y="1505" width="520" height="285" as="geometry" />
        </mxCell>
        <mxCell id="wY2xXW73RIS2hQM-EA6c-35" value="&lt;div style=&quot;forced-color-adjust: none; font-style: normal; font-variant-ligatures: normal; font-variant-caps: normal; font-weight: 400; letter-spacing: normal; orphans: 2; text-align: center; text-indent: 0px; text-transform: none; widows: 2; word-spacing: 0px; -webkit-text-stroke-width: 0px; white-space: normal; text-decoration-thickness: initial; text-decoration-style: initial; text-decoration-color: initial; font-size: 20px;&quot;&gt;&lt;div style=&quot;text-align: start;&quot;&gt;&lt;font style=&quot;font-size: 20px;&quot; color=&quot;#ffffff&quot;&gt;&lt;b&gt;WP4.&amp;nbsp;&lt;span style=&quot;white-space: pre;&quot;&gt;Simulation assessment of&lt;/span&gt;&lt;/b&gt;&lt;/font&gt;&lt;/div&gt;&lt;div style=&quot;text-align: start;&quot;&gt;&lt;font style=&quot;font-size: 20px;&quot; color=&quot;#ffffff&quot;&gt;&lt;b&gt;&lt;span style=&quot;white-space: pre;&quot;&gt;     traffic control performance&lt;/span&gt;&lt;/b&gt;&lt;/font&gt;&lt;/div&gt;&lt;/div&gt;" style="rounded=0;whiteSpace=wrap;html=1;align=center;verticalAlign=middle;fillColor=#903C3A;strokeColor=#903C3A;fontFamily=Arial;fontSource=https%3A%2F%2Ffonts.googleapis.com%2Fcss%3Ffamily%3DArial;aspect=fixed;" vertex="1" parent="zRnvxChmmkFEFyJADCu1-0">
          <mxGeometry x="480" y="1505" width="520" height="69.15" as="geometry" />
        </mxCell>
        <mxCell id="wY2xXW73RIS2hQM-EA6c-36" value="&lt;div style=&quot;&quot;&gt;&lt;span style=&quot;font-weight: 400;&quot;&gt;&lt;font style=&quot;font-size: 20px;&quot;&gt;WP4.1 Traffic data collection&lt;/font&gt;&lt;/span&gt;&lt;br&gt;&lt;/div&gt;" style="rounded=1;whiteSpace=wrap;html=1;arcSize=18;shadow=1;fontStyle=1;gradientColor=#F4B9B7;gradientDirection=south;strokeColor=#602826;fontColor=#602826;fontFamily=Arial;fontSource=https%3A%2F%2Ffonts.googleapis.com%2Fcss%3Ffamily%3DArial;fontSize=20;" vertex="1" parent="zRnvxChmmkFEFyJADCu1-0">
          <mxGeometry x="504" y="1590" width="200" height="80" as="geometry" />
        </mxCell>
        <mxCell id="wY2xXW73RIS2hQM-EA6c-37" value="&lt;span style=&quot;font-weight: 400;&quot;&gt;WP4.2 Simulation environment creation&lt;/span&gt;" style="text;html=1;align=center;verticalAlign=middle;whiteSpace=wrap;rounded=1;strokeColor=#602826;fillColor=default;shadow=1;fontStyle=1;gradientColor=#F4B9B7;gradientDirection=south;fontColor=#602826;fontFamily=Arial;fontSource=https%3A%2F%2Ffonts.googleapis.com%2Fcss%3Ffamily%3DArial;fontSize=20;" vertex="1" parent="zRnvxChmmkFEFyJADCu1-0">
          <mxGeometry x="504" y="1698" width="200" height="80" as="geometry" />
        </mxCell>
        <mxCell id="wY2xXW73RIS2hQM-EA6c-38" value="&lt;font style=&quot;font-size: 20px;&quot;&gt;&lt;span style=&quot;font-weight: 400;&quot;&gt;WP4.3&amp;nbsp;&lt;/span&gt;&lt;span style=&quot;background-color: initial; font-weight: 400;&quot;&gt;Simulation and evaluation at isolated intersections&lt;/span&gt;&lt;/font&gt;" style="rounded=1;whiteSpace=wrap;html=1;arcSize=13;shadow=1;fontStyle=1;gradientColor=#F4B9B7;gradientDirection=south;fillColor=#FFFFFF;strokeColor=#602826;fontColor=#602826;fontFamily=Arial;fontSource=https%3A%2F%2Ffonts.googleapis.com%2Fcss%3Ffamily%3DArial;fontSize=20;spacingRight=1;spacingLeft=1;" vertex="1" parent="zRnvxChmmkFEFyJADCu1-0">
          <mxGeometry x="757" y="1590" width="200" height="80" as="geometry" />
        </mxCell>
        <mxCell id="wY2xXW73RIS2hQM-EA6c-39" value="" style="edgeStyle=orthogonalEdgeStyle;rounded=0;html=1;jettySize=auto;orthogonalLoop=1;fontSize=20;endArrow=classic;endFill=1;endSize=10;strokeWidth=1;shadow=0;labelBackgroundColor=none;entryX=0.5;entryY=0;entryDx=0;entryDy=0;strokeColor=#602826;fontFamily=Arial;fontSource=https%3A%2F%2Ffonts.googleapis.com%2Fcss%3Ffamily%3DArial;exitX=0.5;exitY=1;exitDx=0;exitDy=0;" edge="1" parent="zRnvxChmmkFEFyJADCu1-0" source="wY2xXW73RIS2hQM-EA6c-36" target="wY2xXW73RIS2hQM-EA6c-37">
          <mxGeometry y="10" relative="1" as="geometry">
            <mxPoint as="offset" />
            <mxPoint x="793" y="1715" as="sourcePoint" />
            <mxPoint x="793.0400000000002" y="1691" as="targetPoint" />
            <Array as="points" />
          </mxGeometry>
        </mxCell>
        <mxCell id="wY2xXW73RIS2hQM-EA6c-40" value="" style="edgeStyle=orthogonalEdgeStyle;rounded=0;orthogonalLoop=1;jettySize=auto;html=1;strokeColor=#602826;endSize=10;entryX=0;entryY=0.5;entryDx=0;entryDy=0;" edge="1" parent="zRnvxChmmkFEFyJADCu1-0" source="wY2xXW73RIS2hQM-EA6c-36" target="wY2xXW73RIS2hQM-EA6c-38">
          <mxGeometry relative="1" as="geometry">
            <mxPoint x="768" y="1629" as="targetPoint" />
          </mxGeometry>
        </mxCell>
        <mxCell id="wY2xXW73RIS2hQM-EA6c-41" value="" style="edgeStyle=orthogonalEdgeStyle;rounded=0;html=1;jettySize=auto;orthogonalLoop=1;fontSize=20;endArrow=classic;endFill=1;endSize=10;strokeWidth=1;shadow=0;labelBackgroundColor=none;entryX=0;entryY=0.5;entryDx=0;entryDy=0;strokeColor=#602826;fontFamily=Arial;fontSource=https%3A%2F%2Ffonts.googleapis.com%2Fcss%3Ffamily%3DArial;exitX=1;exitY=0.5;exitDx=0;exitDy=0;" edge="1" parent="zRnvxChmmkFEFyJADCu1-0" source="wY2xXW73RIS2hQM-EA6c-37" target="wY2xXW73RIS2hQM-EA6c-38">
          <mxGeometry y="10" relative="1" as="geometry">
            <mxPoint as="offset" />
            <mxPoint x="622" y="1673" as="sourcePoint" />
            <mxPoint x="768" y="1624" as="targetPoint" />
            <Array as="points" />
          </mxGeometry>
        </mxCell>
        <mxCell id="wY2xXW73RIS2hQM-EA6c-42" value="&lt;span style=&quot;font-weight: 400;&quot;&gt;&lt;font style=&quot;font-size: 20px;&quot;&gt;WP4.4 Simulation and evaluation of the corridor&lt;/font&gt;&lt;/span&gt;" style="rounded=1;whiteSpace=wrap;html=1;arcSize=13;shadow=1;fontStyle=1;gradientColor=#F4B9B7;gradientDirection=south;fillColor=#FFFFFF;strokeColor=#602826;fontColor=#602826;fontFamily=Arial;fontSource=https%3A%2F%2Ffonts.googleapis.com%2Fcss%3Ffamily%3DArial;fontSize=20;spacingRight=1;spacingLeft=1;" vertex="1" parent="zRnvxChmmkFEFyJADCu1-0">
          <mxGeometry x="757" y="1698" width="200" height="80" as="geometry" />
        </mxCell>
        <mxCell id="wY2xXW73RIS2hQM-EA6c-43" value="" style="edgeStyle=orthogonalEdgeStyle;rounded=0;html=1;jettySize=auto;orthogonalLoop=1;fontSize=20;endArrow=classic;endFill=1;endSize=10;strokeWidth=1;shadow=0;labelBackgroundColor=none;entryX=0;entryY=0.5;entryDx=0;entryDy=0;strokeColor=#602826;fontFamily=Arial;fontSource=https%3A%2F%2Ffonts.googleapis.com%2Fcss%3Ffamily%3DArial;exitX=1;exitY=0.5;exitDx=0;exitDy=0;" edge="1" parent="zRnvxChmmkFEFyJADCu1-0" source="wY2xXW73RIS2hQM-EA6c-37" target="wY2xXW73RIS2hQM-EA6c-42">
          <mxGeometry y="10" relative="1" as="geometry">
            <mxPoint as="offset" />
            <mxPoint x="700" y="1735" as="sourcePoint" />
            <mxPoint x="767" y="1640" as="targetPoint" />
            <Array as="points" />
          </mxGeometry>
        </mxCell>
        <mxCell id="wY2xXW73RIS2hQM-EA6c-72" value="" style="group" vertex="1" connectable="0" parent="zRnvxChmmkFEFyJADCu1-0">
          <mxGeometry x="20" y="860" width="50" height="300" as="geometry" />
        </mxCell>
        <mxCell id="wY2xXW73RIS2hQM-EA6c-73" value="" style="rounded=0;whiteSpace=wrap;html=1;fillColor=#602826;strokeColor=none;" vertex="1" parent="wY2xXW73RIS2hQM-EA6c-72">
          <mxGeometry width="50" height="50" as="geometry" />
        </mxCell>
        <mxCell id="wY2xXW73RIS2hQM-EA6c-74" value="" style="rounded=0;whiteSpace=wrap;html=1;fillColor=#903C3A;strokeColor=none;" vertex="1" parent="wY2xXW73RIS2hQM-EA6c-72">
          <mxGeometry y="50" width="50" height="50" as="geometry" />
        </mxCell>
        <mxCell id="wY2xXW73RIS2hQM-EA6c-75" value="" style="rounded=0;whiteSpace=wrap;html=1;fillColor=#C0504D;strokeColor=none;" vertex="1" parent="wY2xXW73RIS2hQM-EA6c-72">
          <mxGeometry y="100" width="50" height="50" as="geometry" />
        </mxCell>
        <mxCell id="wY2xXW73RIS2hQM-EA6c-76" value="" style="rounded=0;whiteSpace=wrap;html=1;fillColor=#DD8482;strokeColor=none;" vertex="1" parent="wY2xXW73RIS2hQM-EA6c-72">
          <mxGeometry y="150" width="50" height="50" as="geometry" />
        </mxCell>
        <mxCell id="wY2xXW73RIS2hQM-EA6c-77" value="" style="rounded=0;whiteSpace=wrap;html=1;fillColor=#EC9C9B;strokeColor=none;" vertex="1" parent="wY2xXW73RIS2hQM-EA6c-72">
          <mxGeometry y="200" width="50" height="50" as="geometry" />
        </mxCell>
        <mxCell id="wY2xXW73RIS2hQM-EA6c-78" value="" style="rounded=0;whiteSpace=wrap;html=1;fillColor=#F4B9B7;strokeColor=none;" vertex="1" parent="wY2xXW73RIS2hQM-EA6c-72">
          <mxGeometry y="250" width="50" height="50" as="geometry" />
        </mxCell>
        <mxCell id="wY2xXW73RIS2hQM-EA6c-79" value="&lt;p style=&quot;line-height: 140%;&quot;&gt;&lt;/p&gt;&lt;li style=&quot;font-size: 20px;&quot;&gt;&lt;font style=&quot;font-size: 20px;&quot;&gt;&lt;strong style=&quot;&quot;&gt;Darker 50%&lt;/strong&gt;: &lt;code style=&quot;&quot;&gt;#&lt;font style=&quot;font-size: 20px;&quot; color=&quot;#602826&quot;&gt;602826&lt;/font&gt;&lt;/code&gt;&lt;/font&gt;&lt;/li&gt;&lt;li style=&quot;font-size: 20px;&quot;&gt;&lt;font style=&quot;font-size: 20px;&quot;&gt;&lt;strong&gt;Darker 25%&lt;/strong&gt;: &lt;code&gt;#903C3A&lt;/code&gt;&lt;/font&gt;&lt;/li&gt;&lt;li style=&quot;font-size: 20px;&quot;&gt;&lt;font style=&quot;font-size: 20px;&quot;&gt;&lt;strong&gt;基准色&lt;/strong&gt;: &lt;code&gt;#C0504D&lt;/code&gt;&lt;/font&gt;&lt;/li&gt;&lt;li style=&quot;font-size: 20px;&quot;&gt;&lt;font style=&quot;font-size: 20px;&quot;&gt;&lt;strong&gt;Lighter 40%&lt;/strong&gt;: &lt;code&gt;#DD8482&lt;/code&gt;&lt;/font&gt;&lt;/li&gt;&lt;li style=&quot;font-size: 20px;&quot;&gt;&lt;font style=&quot;font-size: 20px;&quot;&gt;&lt;strong&gt;Lighter 60%&lt;/strong&gt;: &lt;code&gt;#EC9C9B&lt;/code&gt;&lt;/font&gt;&lt;/li&gt;&lt;li style=&quot;font-size: 20px;&quot;&gt;&lt;font style=&quot;font-size: 20px;&quot;&gt;&lt;strong style=&quot;&quot;&gt;Lighter 80%&lt;/strong&gt;: &lt;code style=&quot;&quot;&gt;#F4B9B7&lt;/code&gt;&lt;/font&gt;&lt;/li&gt;&lt;p&gt;&lt;/p&gt;" style="text;whiteSpace=wrap;html=1;movable=1;resizable=1;rotatable=1;deletable=1;editable=1;locked=0;connectable=1;" vertex="1" parent="zRnvxChmmkFEFyJADCu1-0">
          <mxGeometry x="80" y="850" width="250" height="160" as="geometry" />
        </mxCell>
        <mxCell id="wY2xXW73RIS2hQM-EA6c-81" value="&lt;font color=&quot;#602826&quot; style=&quot;font-size: 20px;&quot;&gt;Intersection&lt;/font&gt;&lt;div style=&quot;font-size: 20px;&quot;&gt;&lt;font color=&quot;#602826&quot; style=&quot;font-size: 20px;&quot;&gt;signal&lt;/font&gt;&lt;/div&gt;&lt;div style=&quot;font-size: 20px;&quot;&gt;&lt;font color=&quot;#602826&quot; style=&quot;font-size: 20px;&quot;&gt;information&lt;/font&gt;&lt;/div&gt;" style="rounded=1;whiteSpace=wrap;html=1;fillColor=#DD8482;strokeColor=#602826;shadow=1;fontFamily=Arial;fontSource=https%3A%2F%2Ffonts.googleapis.com%2Fcss%3Ffamily%3DArial;fillStyle=hatch;dashed=1;" vertex="1" parent="zRnvxChmmkFEFyJADCu1-0">
          <mxGeometry x="757" y="1369" width="200" height="80" as="geometry" />
        </mxCell>
        <mxCell id="wY2xXW73RIS2hQM-EA6c-82" value="" style="edgeStyle=orthogonalEdgeStyle;rounded=0;html=1;jettySize=auto;orthogonalLoop=1;fontSize=20;endArrow=classic;endFill=1;endSize=10;strokeWidth=1;shadow=0;labelBackgroundColor=none;entryX=0.5;entryY=1;entryDx=0;entryDy=0;strokeColor=#602826;fontFamily=Arial;fontSource=https%3A%2F%2Ffonts.googleapis.com%2Fcss%3Ffamily%3DArial;exitX=0.5;exitY=0;exitDx=0;exitDy=0;" edge="1" parent="zRnvxChmmkFEFyJADCu1-0" source="wY2xXW73RIS2hQM-EA6c-81" target="wY2xXW73RIS2hQM-EA6c-27">
          <mxGeometry y="10" relative="1" as="geometry">
            <mxPoint as="offset" />
            <mxPoint x="712" y="1417" as="sourcePoint" />
            <mxPoint x="767" y="1315" as="targetPoint" />
            <Array as="points" />
          </mxGeometry>
        </mxCell>
        <mxCell id="wY2xXW73RIS2hQM-EA6c-87" value="" style="edgeStyle=orthogonalEdgeStyle;rounded=0;orthogonalLoop=1;jettySize=auto;html=1;strokeColor=#602826;endSize=10;entryX=1;entryY=0.5;entryDx=0;entryDy=0;exitX=0.5;exitY=1;exitDx=0;exitDy=0;" edge="1" parent="zRnvxChmmkFEFyJADCu1-0" source="zRnvxChmmkFEFyJADCu1-25" target="wY2xXW73RIS2hQM-EA6c-38">
          <mxGeometry relative="1" as="geometry">
            <mxPoint x="1109" y="1423" as="targetPoint" />
            <mxPoint x="967" y="1315" as="sourcePoint" />
            <Array as="points">
              <mxPoint x="1199" y="1480" />
              <mxPoint x="1030" y="1480" />
              <mxPoint x="1030" y="1630" />
            </Array>
          </mxGeometry>
        </mxCell>
        <mxCell id="sRhsCP6IzzSx_rNH7XnL-2" value="" style="edgeStyle=orthogonalEdgeStyle;rounded=0;html=1;jettySize=auto;orthogonalLoop=1;fontSize=20;endArrow=classic;endFill=1;endSize=10;strokeWidth=1;shadow=0;labelBackgroundColor=none;entryX=1;entryY=0.5;entryDx=0;entryDy=0;strokeColor=#903C3A;fontFamily=Arial;fontSource=https%3A%2F%2Ffonts.googleapis.com%2Fcss%3Ffamily%3DArial;exitX=0;exitY=0.5;exitDx=0;exitDy=0;" parent="zRnvxChmmkFEFyJADCu1-0" source="sRhsCP6IzzSx_rNH7XnL-8" edge="1" target="wY2xXW73RIS2hQM-EA6c-42">
          <mxGeometry y="10" relative="1" as="geometry">
            <mxPoint as="offset" />
            <mxPoint x="1559" y="1840" as="sourcePoint" />
            <mxPoint x="1370" y="2099" as="targetPoint" />
            <Array as="points" />
          </mxGeometry>
        </mxCell>
        <mxCell id="wY2xXW73RIS2hQM-EA6c-91" value="" style="edgeStyle=orthogonalEdgeStyle;rounded=0;orthogonalLoop=1;jettySize=auto;html=1;strokeColor=#602826;endSize=10;entryX=0;entryY=0.5;entryDx=0;entryDy=0;exitX=1;exitY=0.5;exitDx=0;exitDy=0;" edge="1" parent="zRnvxChmmkFEFyJADCu1-0" source="wY2xXW73RIS2hQM-EA6c-27" target="zRnvxChmmkFEFyJADCu1-25">
          <mxGeometry relative="1" as="geometry">
            <mxPoint x="1362" y="1315" as="targetPoint" />
            <mxPoint x="1309" y="1315" as="sourcePoint" />
            <Array as="points">
              <mxPoint x="1030" y="1305" />
              <mxPoint x="1030" y="1409" />
            </Array>
          </mxGeometry>
        </mxCell>
      </root>
    </mxGraphModel>
  </diagram>
</mxfile>
